HIERARCHY
ROOT Hips
{
    OFFSET   0.000000   0.000000   0.000000
    CHANNELS 6 Xposition Yposition Zposition Zrotation Xrotation Yrotation
    JOINT Chest
    {
        OFFSET   0.000000   8.007230   0.000000
        CHANNELS 3 Zrotation Xrotation Yrotation
        JOINT Chest2
        {
            OFFSET   0.000000  22.077100   0.000000
            CHANNELS 3 Zrotation Xrotation Yrotation
            JOINT Neck
            {
                OFFSET   0.000000  23.254800  -0.000021
                CHANNELS 3 Zrotation Xrotation Yrotation
                JOINT Head
                {
                    OFFSET   0.000000  14.370000   1.956610
                    CHANNELS 3 Zrotation Xrotation Yrotation
                    End Site
                    {
                        OFFSET   0.000000  19.566000   0.000000
                    }
                }
            }
            JOINT LeftCollar
            {
                OFFSET   3.911900  19.017000  -0.467063
                CHANNELS 3 Zrotation Xrotation Yrotation
                JOINT LeftShoulder
                {
                    OFFSET  10.383700   0.000000   0.000000
                    CHANNELS 3 Zrotation Xrotation Yrotation
                    JOINT LeftElbow
                    {
                        OFFSET  26.662100   0.001529   0.000325
                        CHANNELS 3 Zrotation Xrotation Yrotation
                        JOINT LeftWrist
                        {
                            OFFSET  28.869000  -0.000011  -0.000096
                            CHANNELS 3 Zrotation Xrotation Yrotation
                            JOINT LeftFinger0
                            {
                                OFFSET   2.044650  -2.323460   3.252850
                                CHANNELS 3 Zrotation Xrotation Yrotation
                                JOINT LeftFinger01
                                {
                                    OFFSET   3.088130   0.000000   0.000000
                                    CHANNELS 3 Zrotation Xrotation Yrotation
                                    JOINT LeftFinger02
                                    {
                                        OFFSET   2.639460   0.000000   0.000000
                                        CHANNELS 3 Zrotation Xrotation Yrotation
                                        End Site
                                        {
                                            OFFSET   2.582190   0.000000   0.000000
                                        }
                                    }
                                }
                            }
                            JOINT LeftFinger1
                            {
                                OFFSET   8.364480   0.000000   3.252850
                                CHANNELS 3 Zrotation Xrotation Yrotation
                                JOINT LeftFinger11
                                {
                                    OFFSET   4.646930   0.000000   0.000000
                                    CHANNELS 3 Zrotation Xrotation Yrotation
                                    JOINT LeftFinger12
                                    {
                                        OFFSET   2.323460   0.000000   0.000000
                                        CHANNELS 3 Zrotation Xrotation Yrotation
                                        End Site
                                        {
                                            OFFSET   2.273050   0.000000   0.000000
                                        }
                                    }
                                }
                            }
                            JOINT LeftFinger2
                            {
                                OFFSET   8.364480   0.000016   1.078090
                                CHANNELS 3 Zrotation Xrotation Yrotation
                                JOINT LeftFinger21
                                {
                                    OFFSET   5.111620   0.000000   0.000000
                                    CHANNELS 3 Zrotation Xrotation Yrotation
                                    JOINT LeftFinger22
                                    {
                                        OFFSET   2.788160   0.000017   0.000000
                                        CHANNELS 3 Zrotation Xrotation Yrotation
                                        End Site
                                        {
                                            OFFSET   2.727660   0.000000   0.000000
                                        }
                                    }
                                }
                            }
                            JOINT LeftFinger3
                            {
                                OFFSET   7.899780   0.000015  -1.078090
                                CHANNELS 3 Zrotation Xrotation Yrotation
                                JOINT LeftFinger31
                                {
                                    OFFSET   4.646920   0.000000   0.000000
                                    CHANNELS 3 Zrotation Xrotation Yrotation
                                    JOINT LeftFinger32
                                    {
                                        OFFSET   2.323470   0.000000   0.000000
                                        CHANNELS 3 Zrotation Xrotation Yrotation
                                        End Site
                                        {
                                            OFFSET   2.273050   0.000000   0.000000
                                        }
                                    }
                                }
                            }
                            JOINT LeftFinger4
                            {
                                OFFSET   7.435090   0.000000  -3.252850
                                CHANNELS 3 Zrotation Xrotation Yrotation
                                JOINT LeftFinger41
                                {
                                    OFFSET   3.717550   0.000000   0.000000
                                    CHANNELS 3 Zrotation Xrotation Yrotation
                                    JOINT LeftFinger42
                                    {
                                        OFFSET   1.858760   0.000000   0.000000
                                        CHANNELS 3 Zrotation Xrotation Yrotation
                                        End Site
                                        {
                                            OFFSET   1.818440   0.000000   0.000000
                                        }
                                    }
                                }
                            }
                        }
                    }
                }
            }
            JOINT RightCollar
            {
                OFFSET  -3.911900  19.017000  -0.467062
                CHANNELS 3 Zrotation Xrotation Yrotation
                JOINT RightShoulder
                {
                    OFFSET -10.383700   0.000015   0.000000
                    CHANNELS 3 Zrotation Xrotation Yrotation
                    JOINT RightElbow
                    {
                        OFFSET -26.662100   0.001341   0.000385
                        CHANNELS 3 Zrotation Xrotation Yrotation
                        JOINT RightWrist
                        {
                            OFFSET -28.869000   0.000025  -0.000080
                            CHANNELS 3 Zrotation Xrotation Yrotation
                            JOINT RightFinger0
                            {
                                OFFSET  -2.044650  -2.323490   3.252850
                                CHANNELS 3 Zrotation Xrotation Yrotation
                                JOINT RightFinger01
                                {
                                    OFFSET  -3.088130   0.000000   0.000000
                                    CHANNELS 3 Zrotation Xrotation Yrotation
                                    JOINT RightFinger02
                                    {
                                        OFFSET  -2.639460   0.000000   0.000000
                                        CHANNELS 3 Zrotation Xrotation Yrotation
                                        End Site
                                        {
                                            OFFSET  -2.582190   0.000000   0.000000
                                        }
                                    }
                                }
                            }
                            JOINT RightFinger1
                            {
                                OFFSET  -8.364480   0.000000   3.252850
                                CHANNELS 3 Zrotation Xrotation Yrotation
                                JOINT RightFinger11
                                {
                                    OFFSET  -4.646930   0.000000   0.000000
                                    CHANNELS 3 Zrotation Xrotation Yrotation
                                    JOINT RightFinger12
                                    {
                                        OFFSET  -2.323470   0.000000   0.000000
                                        CHANNELS 3 Zrotation Xrotation Yrotation
                                        End Site
                                        {
                                            OFFSET  -2.273050   0.000000   0.000000
                                        }
                                    }
                                }
                            }
                            JOINT RightFinger2
                            {
                                OFFSET  -8.364480   0.000000   1.078090
                                CHANNELS 3 Zrotation Xrotation Yrotation
                                JOINT RightFinger21
                                {
                                    OFFSET  -5.111610   0.000000   0.000000
                                    CHANNELS 3 Zrotation Xrotation Yrotation
                                    JOINT RightFinger22
                                    {
                                        OFFSET  -2.788160   0.000000   0.000000
                                        CHANNELS 3 Zrotation Xrotation Yrotation
                                        End Site
                                        {
                                            OFFSET  -2.727660   0.000000   0.000000
                                        }
                                    }
                                }
                            }
                            JOINT RightFinger3
                            {
                                OFFSET  -7.899780   0.000000  -1.078090
                                CHANNELS 3 Zrotation Xrotation Yrotation
                                JOINT RightFinger31
                                {
                                    OFFSET  -4.646920   0.000000   0.000000
                                    CHANNELS 3 Zrotation Xrotation Yrotation
                                    JOINT RightFinger32
                                    {
                                        OFFSET  -2.323470   0.000000   0.000000
                                        CHANNELS 3 Zrotation Xrotation Yrotation
                                        End Site
                                        {
                                            OFFSET  -2.273050   0.000000   0.000000
                                        }
                                    }
                                }
                            }
                            JOINT RightFinger4
                            {
                                OFFSET  -7.435090   0.000000  -3.252850
                                CHANNELS 3 Zrotation Xrotation Yrotation
                                JOINT RightFinger41
                                {
                                    OFFSET  -3.717550   0.000000   0.000000
                                    CHANNELS 3 Zrotation Xrotation Yrotation
                                    JOINT RightFinger42
                                    {
                                        OFFSET  -1.858770   0.000000   0.000000
                                        CHANNELS 3 Zrotation Xrotation Yrotation
                                        End Site
                                        {
                                            OFFSET  -1.818440   0.000000   0.000000
                                        }
                                    }
                                }
                            }
                        }
                    }
                }
            }
        }
    }
    JOINT LeftHip
    {
        OFFSET   9.783010   0.000000   0.000000
        CHANNELS 3 Zrotation Xrotation Yrotation
        JOINT LeftKnee
        {
            OFFSET   0.000070 -41.789100   0.000028
            CHANNELS 3 Zrotation Xrotation Yrotation
            JOINT LeftAnkle
            {
                OFFSET   0.000087 -41.133200  -0.000100
                CHANNELS 3 Zrotation Xrotation Yrotation
                JOINT LeftToe
                {
                    OFFSET   0.000000  -6.358960  14.674500
                    CHANNELS 3 Zrotation Xrotation Yrotation
                    End Site
                    {
                        OFFSET   0.000000   0.000000   3.913200
                    }
                }
            }
        }
    }
    JOINT RightHip
    {
        OFFSET  -9.783020   0.000000   0.000000
        CHANNELS 3 Zrotation Xrotation Yrotation
        JOINT RightKnee
        {
            OFFSET   0.000044 -41.789100  -0.000870
            CHANNELS 3 Zrotation Xrotation Yrotation
            JOINT RightAnkle
            {
                OFFSET  -0.000090 -41.133200  -0.000245
                CHANNELS 3 Zrotation Xrotation Yrotation
                JOINT RightToe
                {
                    OFFSET   0.000000  -6.358960  14.674500
                    CHANNELS 3 Zrotation Xrotation Yrotation
                    End Site
                    {
                        OFFSET   0.000000   0.000000   3.913200
                    }
                }
            }
        }
    }
}
MOTION
Frames: 4
Frame Time:   0.016667
  7.520160  88.885200  -3.478170   1.730570 -17.208000   5.268200  -0.964416   9.592270   2.368370  -2.387840  19.133700   5.010180   3.993690   1.943660  -0.135762   6.582070   3.883830  -6.790350  -6.740920  -1.892970   7.730060 -75.276700  12.505800  -6.560290  -0.045759   1.672350 -12.073200  12.528100  -2.847190  -2.507470  39.002200  30.745300 -52.079700 -31.749900  -0.001050  -0.000605 -10.874900  -0.000610   0.002111 -36.536300  -0.638903   0.862092 -29.897300   0.000214  -0.002794 -20.928100   0.003409   0.005521 -32.119300  -3.698250   5.859150 -48.463200  -0.001749  -0.005443 -32.276500  -0.001763  -0.006350 -28.614300  -3.328030   6.073780 -42.040700  -0.002626   0.009952 -27.999100  -0.002260   0.002368 -37.166800  -4.195480   5.511670 -56.053300   0.001182  -0.009576 -37.331500  -0.005477   0.000361   2.323260  -4.276110   9.670250  53.772200 -22.064100  79.269500  -6.243550 -39.301600  78.666400  23.708400 -52.040900  27.549400 -49.615800  37.592100  76.442700 -19.956400   0.002848   0.001190 -14.921300   0.000217   0.003072  20.134800   5.530820  14.740000  17.060100   0.000449  -0.003487  11.942000   0.001820  -0.003128  89.000000   0.002189  -0.001758  93.357700  -0.000403   0.002365  70.018300  -0.001061   0.001238  89.192400  -5.003350  -0.070604  90.203500  -0.000706   0.001306  67.652600  -0.000733   0.000572  25.476400  -5.770350 -11.908900  39.117200   0.002549   0.002857  26.052100   0.003485   0.000690  -1.550760  17.410600  -1.782570  -2.298750   0.472059  11.297800   0.389195  -1.914300   3.617410   0.000000   0.000000   0.000000  -7.247010  10.641500  -4.052520  -2.957770  15.431400 -14.174500   5.281180  -5.025290  -1.965430   0.000000   0.000000  -0.000000
  7.421340  88.902000  -3.493760   1.683660 -17.091600   5.292410  -0.904964   9.585870   2.299530  -2.253970  19.124900   4.858830   3.856090   1.841280  -0.124274   6.352190   3.682620  -6.762060  -6.838170  -1.893990   7.811250 -75.411200  12.331700  -6.552110  -0.102227   1.874300 -12.408600  12.481700  -3.022950  -2.558230  39.052800  30.814700 -52.178300 -31.710400  -0.001072  -0.000574 -10.855200  -0.000613   0.002000 -36.570000  -0.637301   0.858804 -29.924900   0.000212  -0.002738 -20.947400   0.003485   0.005587 -32.159900  -3.698340   5.848020 -48.523700  -0.001749  -0.005600 -32.316800  -0.001805  -0.006478 -28.615200  -3.322850   6.064850 -42.114400  -0.002624   0.010081 -28.048300  -0.002261   0.002234 -37.262000  -4.198720   5.496670 -56.195500   0.001183  -0.009676 -37.426300  -0.005477   0.000401   2.327450  -4.194830   9.740020  53.873800 -21.623700  79.261300  -6.052070 -39.269100  80.439600  23.717300 -51.623500  27.235200 -50.458200  37.984000  76.810400 -20.110000   0.002733   0.001096 -14.998100  -0.000314   0.002808  20.070200   5.316580  14.222800  16.956200   0.000602  -0.003457  11.869300   0.001889  -0.003135  89.000000   0.002096  -0.001822  92.582700  -0.000572   0.002238  69.437000  -0.000961   0.001276  89.015200  -5.003160  -0.085307  89.498400  -0.000821   0.001243  67.123800  -0.000660   0.000426  25.130900  -5.854830 -12.266600  38.639500   0.002558   0.003299  25.733900   0.003528   0.000689  -1.407950  17.302500  -1.753700  -2.292240   0.425402  11.167900   0.311153  -1.878890   3.635400  -0.000000   0.000000   0.000000  -7.135660  10.587600  -4.089170  -2.919270  15.291800 -14.211900   5.259980  -4.997750  -1.988980   0.000000   0.000000   0.000000
  7.319690  88.916500  -3.506490   1.634160 -16.987600   5.306080  -0.842772   9.574790   2.211690  -2.110920  19.107700   4.668030   3.701620   1.766380  -0.114384   6.096910   3.537260  -6.661280  -6.912320  -1.903100   7.936970 -75.563700  12.211800  -6.529190  -0.171282   2.010130 -12.751400  12.406500  -3.127890  -2.614030  39.145200  30.956100 -52.350500 -31.671500  -0.001093  -0.000533 -10.835800  -0.000615   0.001883 -36.590700  -0.636552   0.857501 -29.941800   0.000210  -0.002672 -20.959200   0.003562   0.005652 -32.192400  -3.698420   5.839140 -48.572200  -0.001749  -0.005754 -32.349100  -0.001848  -0.006604 -28.615700  -3.319510   6.057710 -42.166400  -0.002623   0.010208 -28.082900  -0.002261   0.002103 -37.343800  -4.201800   5.484270 -56.317600   0.001184  -0.009773 -37.507600  -0.005477   0.000440   2.324930  -4.115660   9.844210  53.974000 -21.274700  79.380600  -5.905370 -39.175300  81.833800  23.483400 -51.240000  26.719900 -51.214900  38.318100  77.027500 -20.132000   0.002680   0.000929 -15.009100  -0.000867   0.002550  19.851000   5.013670  13.621100  16.729200   0.000758  -0.003424  11.710400   0.001967  -0.003140  89.000000   0.002004  -0.001883  91.773400  -0.000735   0.002114  68.830000  -0.000860   0.001306  88.638300  -5.002980  -0.117307  88.725000  -0.000932   0.001190  66.543800  -0.000586   0.000249  24.684800  -5.949550 -12.707600  38.020700   0.002567   0.003683  25.321800   0.003570   0.000681  -1.259270  17.212300  -1.695530  -2.287570   0.369320  11.035000   0.231738  -1.841990   3.652410   0.000000   0.000000   0.000000  -7.022900  10.508800  -4.104300  -2.878600  15.219200 -14.228000   5.229370  -4.985550  -2.027670  -0.000000   0.000000   0.000000
  7.212170  88.929300  -3.523210   1.572490 -16.906100   5.269480  -0.790563   9.565410   2.112540  -1.989360  19.093100   4.456150   3.554590   1.739090  -0.108974   5.852750   3.486410  -6.450100  -6.947530  -1.929890   8.111520 -75.719900  12.232600  -6.472690  -0.252667   2.022820 -13.075600  12.312500  -3.127590  -2.677060  39.246600  31.115500 -52.536200 -31.630500  -0.001102  -0.000520 -10.815300  -0.000618   0.001760 -36.591000  -0.634899   0.855107 -29.942000   0.000210  -0.002596 -20.959400   0.003639   0.005719 -32.206300  -3.698460   5.835410 -48.592900  -0.001750  -0.005906 -32.362900  -0.001894  -0.006725 -28.615700  -3.319040   6.054680 -42.178800  -0.002625   0.010334 -28.091100  -0.002261   0.001974 -37.403500  -4.204790   5.477230 -56.407000   0.001184  -0.009866 -37.567100  -0.005477   0.000478   2.291060  -4.069610  10.013500  53.978700 -21.069900  79.494700  -5.784720 -39.147400  82.582700  22.553500 -50.914200  25.517600 -51.686200  38.523000  77.055100 -19.899200   0.002665   0.000610 -14.920700  -0.001452   0.002287  19.566000   4.716910  12.971800  16.442900   0.000909  -0.003380  11.510000   0.002052  -0.003144  89.000000   0.001911  -0.001937  91.055400  -0.000888   0.001998  68.291500  -0.000769   0.001325  88.029200  -5.002780  -0.169836  87.995200  -0.001039   0.001158  65.996400  -0.000518   0.000018  24.188700  -6.034150 -13.159800  37.328300   0.002577   0.003957  24.860600   0.003619   0.000649  -1.117130  17.153900  -1.618490  -2.281480   0.289222  10.916300   0.161047  -1.790410   3.674660   0.000000   0.000000   0.000000  -6.916160  10.383500  -4.084660  -2.840710  15.237700 -14.216100   5.186720  -4.992930  -2.064400  -0.000000   0.000000   0.000000
